<svg xmlns="http://www.w3.org/2000/svg" xmlns:xlink="http://www.w3.org/1999/xlink" width="400" zoomAndPan="magnify" viewBox="0 0 300 299.999988" height="400" preserveAspectRatio="xMidYMid meet" version="1.0"><defs><clipPath id="3c32d0b7e0"><path d="M 150 0 C 67.15625 0 0 67.15625 0 150 C 0 232.84375 67.15625 300 150 300 C 232.84375 300 300 232.84375 300 150 C 300 67.15625 232.84375 0 150 0 Z M 150 0 " clip-rule="nonzero"/></clipPath><clipPath id="d66f72cb53"><path d="M 10 11.316406 L 275 11.316406 L 275 241.097656 L 10 241.097656 Z M 10 11.316406 " clip-rule="nonzero"/></clipPath><clipPath id="2826cc137b"><path d="M 30 183.542969 L 268.410156 183.542969 L 268.410156 269.972656 L 30 269.972656 Z M 30 183.542969 " clip-rule="nonzero"/></clipPath></defs><g clip-path="url(#3c32d0b7e0)"><rect x="-30" width="360" fill="#ffffff" y="-29.999999" height="359.999986" fill-opacity="1"/></g><g clip-path="url(#d66f72cb53)"><path fill="#002950" d="M 208.753906 130.101562 C 206.238281 130.058594 203.742188 129.90625 201.222656 129.648438 C 196.445312 129.15625 192.246094 125.796875 187.945312 125.667969 C 180.195312 125.433594 172.855469 128.746094 163.945312 129.089844 C 158.046875 129.371094 152.601562 127.777344 147.71875 123.648438 C 122.234375 119.539062 101.230469 119.582031 84.59375 123.648438 C 82.140625 110.585938 76.113281 100.992188 69.933594 98.195312 C 73.660156 107.597656 76.414062 116.03125 74.992188 123.386719 C 67.566406 121.515625 61.089844 124.035156 56.226562 134.058594 C 48.089844 137.4375 46.304688 160.910156 46.390625 190.214844 C 48.457031 194.175781 49.660156 198.691406 50.15625 203.683594 C 50.738281 209.429688 50.371094 215.796875 49.273438 222.636719 C 45.875 225.070312 45.507812 234.902344 43.636719 241.054688 L 37.113281 241.054688 L 31.90625 193.699219 L 23.1875 176.316406 C 12.425781 155.53125 10.058594 137.910156 17.980469 124.226562 C 13.03125 120.269531 10.316406 115.773438 10.082031 110.695312 C 9.609375 99.828125 19.574219 89.996094 27.902344 84.296875 C 32.894531 80.875 43.636719 79.648438 42.882812 74.441406 C 38.621094 74.871094 35.113281 74.183594 32.765625 71.773438 C 21.488281 60.21875 43.613281 55.292969 51.664062 54.453125 C 65.933594 52.96875 81.386719 56.539062 102.003906 56.539062 C 93.480469 50.257812 81.019531 46.859375 70.214844 47.160156 C 78.566406 38.875 91.480469 32.765625 104.867188 29.34375 C 102.132812 27.839844 93.953125 27.195312 83.496094 28.550781 C 100.195312 18.414062 111.796875 21.988281 135.492188 29.90625 L 121.074219 11.316406 C 129.035156 14.886719 136.484375 17.855469 143.476562 20.289062 C 170.035156 29.539062 200.878906 25.859375 225.542969 32.226562 C 266.5 42.792969 288.433594 99.183594 243.730469 122.164062 C 232.667969 127.863281 221.132812 130.296875 208.753906 130.101562 Z M 243.171875 134.921875 C 241.898438 133.414062 241.46875 131.84375 241.855469 131.027344 C 256.277344 125.152344 266.457031 129.089844 271.925781 143.957031 C 278.058594 158.757812 271.902344 160.460938 268.589844 170.527344 C 264.800781 181.996094 268.824219 195.703125 265.640625 210.417969 C 263.058594 222.273438 263.53125 228.878906 263.53125 241.035156 C 260.820312 237.054688 259.226562 225.371094 257.933594 211.773438 C 257.828125 196.777344 258.515625 185.417969 254.640625 170.722656 C 253.136719 165.019531 251.199219 161.210938 249.992188 156.953125 C 246.871094 146.085938 249.714844 142.625 243.171875 134.921875 Z M 243.171875 134.921875 " fill-opacity="1" fill-rule="evenodd"/></g><g clip-path="url(#2826cc137b)"><path fill="#5ac116" d="M 88.253906 265.007812 C 111.382812 265.007812 128.390625 241.308594 128.390625 221.515625 C 128.390625 201.726562 110.53125 189.066406 88.253906 189.066406 C 67.960938 189.066406 48.867188 200.828125 48.867188 222.925781 C 48.867188 242.714844 65.386719 265.007812 88.253906 265.007812 M 209.988281 265.007812 C 232.859375 265.007812 249.378906 242.714844 249.378906 222.925781 C 249.378906 200.828125 230.289062 189.066406 209.988281 189.066406 C 187.710938 189.066406 169.851562 201.726562 169.851562 221.515625 C 169.851562 241.308594 186.863281 265.007812 209.988281 265.007812 M 268.226562 200.546875 L 268.226562 208.765625 C 268.226562 208.765625 259.722656 210.179688 257.742188 216.417969 C 255.757812 222.648438 254.054688 269.972656 210.957031 269.972656 C 167.859375 269.972656 160.492188 216.980469 160.492188 216.980469 C 160.492188 216.980469 163.894531 214.425781 163.894531 210.75 C 163.894531 207.113281 158.59375 204.320312 149.121094 204.234375 C 139.644531 204.320312 134.347656 207.113281 134.347656 210.75 C 134.347656 214.425781 137.75 216.980469 137.75 216.980469 C 137.75 216.980469 130.382812 269.972656 87.285156 269.972656 C 44.1875 269.972656 42.484375 222.648438 40.5 216.417969 C 38.519531 210.179688 30.015625 208.765625 30.015625 208.765625 L 30.015625 200.546875 C 30.015625 200.546875 39.226562 200.546875 41.992188 199.058594 C 44.753906 197.570312 63.46875 183.546875 86.859375 183.546875 C 110.25 183.546875 127.261719 197.996094 131.726562 197.996094 C 136.191406 197.996094 135.980469 194.382812 135.980469 194.382812 L 162.265625 194.382812 C 162.265625 194.382812 162.050781 197.996094 166.519531 197.996094 C 170.980469 197.996094 187.992188 183.546875 211.386719 183.546875 C 234.773438 183.546875 253.488281 197.570312 256.246094 199.058594 C 259.015625 200.546875 268.226562 200.546875 268.226562 200.546875 " fill-opacity="1" fill-rule="nonzero"/></g></svg>